<?xml version="1.0" encoding="UTF-8"?>
<!DOCTYPE svg PUBLIC "-//W3C//DTD SVG 1.1//EN" "http://www.w3.org/Graphics/SVG/1.1/DTD/svg11.dtd">
<svg xmlns="http://www.w3.org/2000/svg" version="1.1" width="768px" height="886px" style="shape-rendering:geometricPrecision; text-rendering:geometricPrecision; image-rendering:optimizeQuality; fill-rule:evenodd; clip-rule:evenodd" xmlns:xlink="http://www.w3.org/1999/xlink">
<g><path style="opacity:1" fill="#fbfafb" d="M -0.5,-0.5 C 255.5,-0.5 511.5,-0.5 767.5,-0.5C 767.5,294.833 767.5,590.167 767.5,885.5C 511.5,885.5 255.5,885.5 -0.5,885.5C -0.5,590.167 -0.5,294.833 -0.5,-0.5 Z"/></g>
<g><path style="opacity:1" fill="#91b7d1" d="M 6.5,6.5 C 6.5,269.167 6.5,531.833 6.5,794.5C 6.5,822.5 6.5,850.5 6.5,878.5C 257.833,878.5 509.167,878.5 760.5,878.5C 760.5,793.5 760.5,708.5 760.5,623.5C 760.5,417.833 760.5,212.167 760.5,6.5C 761.5,297.333 761.833,588.333 761.5,879.5C 509.5,879.5 257.5,879.5 5.5,879.5C 5.16686,588.333 5.50019,297.333 6.5,6.5 Z"/></g>
<g><path style="opacity:1" fill="#fbfcfc" d="M 120.5,802.5 C 121.291,813.241 116.291,818.908 105.5,819.5C 95.7985,817.445 91.4652,811.445 92.5,801.5C 97.8018,789.847 105.802,787.513 116.5,794.5C 118.905,796.642 120.238,799.309 120.5,802.5 Z"/></g>
<g><path style="opacity:1" fill="#fafafb" d="M 72.5,795.5 C 69.4116,804.389 63.0783,808.222 53.5,807C 47.3145,804.128 43.9811,799.294 43.5,792.5C 45.8539,780.653 52.8539,776.486 64.5,780C 70.4161,783.434 73.0828,788.6 72.5,795.5 Z"/></g>
<g><path style="opacity:1" fill="#fbfcfc" d="M 318.5,764.5 C 322.81,769.883 323.643,775.883 321,782.5C 310.899,792.55 302.065,791.55 294.5,779.5C 293.608,766.559 299.608,760.393 312.5,761C 314.692,761.926 316.692,763.093 318.5,764.5 Z"/></g>
<g><path style="opacity:1" fill="#fcfdfd" d="M 221.5,794.5 C 207.327,806.756 193.494,806.423 180,793.5C 177.871,790.233 176.038,786.899 174.5,783.5C 172.621,767.876 178.955,757.043 193.5,751C 210.067,748.363 221.233,754.863 227,770.5C 228.423,779.297 226.59,787.297 221.5,794.5 Z"/></g>
<g><path style="opacity:1" fill="#fafbfc" d="M 355.5,747.5 C 360.707,758.045 358.041,765.879 347.5,771C 338.375,771.943 332.375,768.11 329.5,759.5C 329.631,747.534 335.631,742.034 347.5,743C 350.324,744.245 352.991,745.745 355.5,747.5 Z"/></g>
<g><path style="opacity:1" fill="#fcfcfd" d="M 563.5,733.5 C 562.215,744.827 555.882,749.327 544.5,747C 536.186,742.866 533.519,736.366 536.5,727.5C 540.146,720.681 545.813,718.181 553.5,720C 560.352,721.865 563.686,726.365 563.5,733.5 Z"/></g>
<g><path style="opacity:1" fill="#fcfdfd" d="M 518.5,726.5 C 519.136,741.344 512.136,746.844 497.5,743C 491.382,738.145 489.382,731.978 491.5,724.5C 496.48,716.504 503.48,714.338 512.5,718C 515.523,720.177 517.523,723.011 518.5,726.5 Z"/></g>
<g><path style="opacity:1" fill="#fbfcfc" d="M 474.5,724.5 C 476.359,739.806 469.692,745.973 454.5,743C 448.197,738.878 445.864,733.045 447.5,725.5C 452.415,715.875 459.748,713.375 469.5,718C 471.765,719.758 473.432,721.925 474.5,724.5 Z"/></g>
<g><path style="opacity:1" fill="#fcfcfd" d="M 420.5,728.5 C 414.091,742.707 403.091,748.541 387.5,746C 383.445,744.436 379.779,742.269 376.5,739.5C 365.547,726.054 365.88,712.888 377.5,700C 391.295,690.466 404.128,691.633 416,703.5C 421.37,711.103 422.87,719.436 420.5,728.5 Z"/></g>
<g><path style="opacity:1" fill="#fcfcfd" d="M 655.5,679.5 C 656.369,704.631 644.369,715.298 619.5,711.5C 603.991,702.804 599.491,690.137 606,673.5C 615.969,658.845 628.802,655.679 644.5,664C 649.966,667.954 653.632,673.121 655.5,679.5 Z"/></g>
<g><path style="opacity:1" fill="#fafbfc" d="M 701.5,648.5 C 706.114,663.056 700.78,669.889 685.5,669C 682.695,667.618 680.361,665.784 678.5,663.5C 674.791,655.646 676.457,649.146 683.5,644C 690.721,640.996 696.721,642.496 701.5,648.5 Z"/></g>
<g><path style="opacity:1" fill="#01ade4" d="M 760.5,623.5 C 760.5,708.5 760.5,793.5 760.5,878.5C 509.167,878.5 257.833,878.5 6.5,878.5C 6.5,850.5 6.5,822.5 6.5,794.5C 18.7742,792.957 31.1075,792.29 43.5,792.5C 43.9811,799.294 47.3145,804.128 53.5,807C 63.0783,808.222 69.4116,804.389 72.5,795.5C 79.361,796.899 86.0277,798.899 92.5,801.5C 91.4652,811.445 95.7985,817.445 105.5,819.5C 116.291,818.908 121.291,813.241 120.5,802.5C 125.386,800.542 130.052,798.209 134.5,795.5C 142.76,798.083 149.093,795.75 153.5,788.5C 160.632,786.93 167.632,785.263 174.5,783.5C 176.038,786.899 177.871,790.233 180,793.5C 193.494,806.423 207.327,806.756 221.5,794.5C 227.077,797.74 232.077,801.74 236.5,806.5C 227.763,816.107 228.763,824.607 239.5,832C 250.95,834.362 257.617,829.862 259.5,818.5C 259.347,815.2 258.347,812.2 256.5,809.5C 258.5,807.833 260.5,806.167 262.5,804.5C 268.426,811.968 275.759,813.468 284.5,809C 291.135,801.137 291.135,793.304 284.5,785.5C 288.078,783.925 291.411,781.925 294.5,779.5C 302.065,791.55 310.899,792.55 321,782.5C 323.643,775.883 322.81,769.883 318.5,764.5C 322.043,762.562 325.71,760.895 329.5,759.5C 332.375,768.11 338.375,771.943 347.5,771C 358.041,765.879 360.707,758.045 355.5,747.5C 362.462,744.51 369.462,741.843 376.5,739.5C 379.779,742.269 383.445,744.436 387.5,746C 403.091,748.541 414.091,742.707 420.5,728.5C 429.558,727.864 438.558,726.864 447.5,725.5C 445.864,733.045 448.197,738.878 454.5,743C 469.692,745.973 476.359,739.806 474.5,724.5C 480.167,724.5 485.833,724.5 491.5,724.5C 489.382,731.978 491.382,738.145 497.5,743C 512.136,746.844 519.136,741.344 518.5,726.5C 524.484,727.074 530.484,727.407 536.5,727.5C 533.519,736.366 536.186,742.866 544.5,747C 555.882,749.327 562.215,744.827 563.5,733.5C 569.451,734.714 575.451,735.714 581.5,736.5C 580.697,750.2 587.03,756.033 600.5,754C 608.122,750.167 610.955,744.001 609,735.5C 607.334,733.004 605.5,730.671 603.5,728.5C 608.833,722.833 614.167,717.167 619.5,711.5C 644.369,715.298 656.369,704.631 655.5,679.5C 663.149,674.192 670.815,668.859 678.5,663.5C 680.361,665.784 682.695,667.618 685.5,669C 700.78,669.889 706.114,663.056 701.5,648.5C 706.167,646.5 710.833,644.5 715.5,642.5C 721.047,646.234 726.714,646.401 732.5,643C 735.014,639.587 736.014,635.753 735.5,631.5C 743.731,628.553 752.064,625.887 760.5,623.5 Z"/></g>
<g><path style="opacity:1" fill="#fbfcfd" d="M 256.5,809.5 C 258.347,812.2 259.347,815.2 259.5,818.5C 257.617,829.862 250.95,834.362 239.5,832C 228.763,824.607 227.763,816.107 236.5,806.5C 243.846,803.167 250.513,804.167 256.5,809.5 Z"/></g>
<g><path style="opacity:1" fill="#fcfcfd" d="M 284.5,785.5 C 291.135,793.304 291.135,801.137 284.5,809C 275.759,813.468 268.426,811.968 262.5,804.5C 259.907,786.762 267.241,780.429 284.5,785.5 Z"/></g>
<g><path style="opacity:1" fill="#fcfdfd" d="M 603.5,728.5 C 605.5,730.671 607.334,733.004 609,735.5C 610.955,744.001 608.122,750.167 600.5,754C 587.03,756.033 580.697,750.2 581.5,736.5C 586.045,726.573 593.378,723.906 603.5,728.5 Z"/></g>
<g><path style="opacity:1" fill="#fbfbfc" d="M 735.5,631.5 C 736.014,635.753 735.014,639.587 732.5,643C 726.714,646.401 721.047,646.234 715.5,642.5C 710.153,628.685 714.82,622.518 729.5,624C 732.817,625.48 734.817,627.98 735.5,631.5 Z"/></g>
<g><path style="opacity:1" fill="#361d54" d="M 6.5,6.5 C 257.833,6.5 509.167,6.5 760.5,6.5C 760.5,212.167 760.5,417.833 760.5,623.5C 752.064,625.887 743.731,628.553 735.5,631.5C 734.817,627.98 732.817,625.48 729.5,624C 714.82,622.518 710.153,628.685 715.5,642.5C 710.833,644.5 706.167,646.5 701.5,648.5C 696.721,642.496 690.721,640.996 683.5,644C 676.457,649.146 674.791,655.646 678.5,663.5C 670.815,668.859 663.149,674.192 655.5,679.5C 653.632,673.121 649.966,667.954 644.5,664C 628.802,655.679 615.969,658.845 606,673.5C 599.491,690.137 603.991,702.804 619.5,711.5C 614.167,717.167 608.833,722.833 603.5,728.5C 593.378,723.906 586.045,726.573 581.5,736.5C 575.451,735.714 569.451,734.714 563.5,733.5C 563.686,726.365 560.352,721.865 553.5,720C 545.813,718.181 540.146,720.681 536.5,727.5C 530.484,727.407 524.484,727.074 518.5,726.5C 517.523,723.011 515.523,720.177 512.5,718C 503.48,714.338 496.48,716.504 491.5,724.5C 485.833,724.5 480.167,724.5 474.5,724.5C 473.432,721.925 471.765,719.758 469.5,718C 459.748,713.375 452.415,715.875 447.5,725.5C 438.558,726.864 429.558,727.864 420.5,728.5C 422.87,719.436 421.37,711.103 416,703.5C 404.128,691.633 391.295,690.466 377.5,700C 365.88,712.888 365.547,726.054 376.5,739.5C 369.462,741.843 362.462,744.51 355.5,747.5C 352.991,745.745 350.324,744.245 347.5,743C 335.631,742.034 329.631,747.534 329.5,759.5C 325.71,760.895 322.043,762.562 318.5,764.5C 316.692,763.093 314.692,761.926 312.5,761C 299.608,760.393 293.608,766.559 294.5,779.5C 291.411,781.925 288.078,783.925 284.5,785.5C 267.241,780.429 259.907,786.762 262.5,804.5C 260.5,806.167 258.5,807.833 256.5,809.5C 250.513,804.167 243.846,803.167 236.5,806.5C 232.077,801.74 227.077,797.74 221.5,794.5C 226.59,787.297 228.423,779.297 227,770.5C 221.233,754.863 210.067,748.363 193.5,751C 178.955,757.043 172.621,767.876 174.5,783.5C 167.632,785.263 160.632,786.93 153.5,788.5C 156.19,773.355 149.856,766.855 134.5,769C 125.517,774.127 123.35,781.294 128,790.5C 129.777,792.79 131.944,794.457 134.5,795.5C 130.052,798.209 125.386,800.542 120.5,802.5C 120.238,799.309 118.905,796.642 116.5,794.5C 105.802,787.513 97.8018,789.847 92.5,801.5C 86.0277,798.899 79.361,796.899 72.5,795.5C 73.0828,788.6 70.4161,783.434 64.5,780C 52.8539,776.486 45.8539,780.653 43.5,792.5C 31.1075,792.29 18.7742,792.957 6.5,794.5C 6.5,531.833 6.5,269.167 6.5,6.5 Z"/></g>
<g><path style="opacity:1" fill="#fbfafb" d="M 153.5,788.5 C 149.093,795.75 142.76,798.083 134.5,795.5C 131.944,794.457 129.777,792.79 128,790.5C 123.35,781.294 125.517,774.127 134.5,769C 149.856,766.855 156.19,773.355 153.5,788.5 Z"/></g>
<g><path style="opacity:1" fill="#f9f9fa" d="M 88.5,756.5 C 99.4993,756.334 104.999,761.667 105,772.5C 100.867,783.726 93.3668,786.56 82.5,781C 78.7159,776.139 77.5493,770.639 79,764.5C 81.1608,760.495 84.3275,757.829 88.5,756.5 Z"/></g>
<g><path style="opacity:1" fill="#faf9fa" d="M 255.5,749.5 C 271.47,749.296 276.637,756.63 271,771.5C 262.215,778.912 254.548,777.912 248,768.5C 244.967,759.909 247.467,753.575 255.5,749.5 Z"/></g>
<g><path style="opacity:1" fill="#faf9fa" d="M 39.5,744.5 C 54.8641,745.902 59.3641,753.568 53,767.5C 48.483,771.242 43.3163,772.409 37.5,771C 30.22,767.269 27.72,761.435 30,753.5C 31.775,748.888 34.9417,745.888 39.5,744.5 Z"/></g>
<g><path style="opacity:1" fill="#f9f9fa" d="M 119.5,734.5 C 133.178,733.012 139.344,739.012 138,752.5C 132.907,761.531 125.74,763.698 116.5,759C 109.046,749.693 110.046,741.526 119.5,734.5 Z"/></g>
<g><path style="opacity:1" fill="#faf9fa" d="M 290.5,726.5 C 302.764,727.025 307.931,733.358 306,745.5C 301.968,753.037 295.802,755.537 287.5,753C 279.257,747.907 277.424,741.074 282,732.5C 284.322,729.605 287.155,727.605 290.5,726.5 Z"/></g>
<g><path style="opacity:1" fill="#f8f7f9" d="M 73.5,724.5 C 86.2511,725.354 90.4177,731.688 86,743.5C 81.9089,747.305 77.0755,748.472 71.5,747C 65.9592,743.178 64.1259,738.011 66,731.5C 67.7424,728.254 70.2424,725.921 73.5,724.5 Z"/></g>
<g><path style="opacity:1" fill="#faf9fa" d="M 158.5,724.5 C 172.266,724.428 177.766,731.095 175,744.5C 170.748,750.588 164.915,752.754 157.5,751C 150.33,746.841 147.83,740.674 150,732.5C 152.074,728.923 154.907,726.256 158.5,724.5 Z"/></g>
<g><path style="opacity:1" fill="#f9f8fa" d="M 201.5,717.5 C 211.211,717.38 216.045,722.047 216,731.5C 213.642,739.192 208.475,742.025 200.5,740C 194.092,736.677 191.925,731.511 194,724.5C 195.742,721.254 198.242,718.921 201.5,717.5 Z"/></g>
<g><path style="opacity:1" fill="#fbfafb" d="M 240.5,717.5 C 252.709,716.206 257.875,721.54 256,733.5C 250.077,741.752 243.41,742.419 236,735.5C 234.48,731.625 234.146,727.625 235,723.5C 237.04,721.63 238.873,719.63 240.5,717.5 Z"/></g>
<g><path style="opacity:1" fill="#f9f9fa" d="M 325.5,708.5 C 340.84,709.849 345.34,717.516 339,731.5C 332.721,736.378 326.221,736.712 319.5,732.5C 313.956,725.096 314.289,717.929 320.5,711C 322.315,710.243 323.981,709.41 325.5,708.5 Z"/></g>
<g><path style="opacity:1" fill="#f8f8f9" d="M 105.5,702.5 C 119.626,702.115 124.126,708.449 119,721.5C 110.847,727.763 104.181,726.429 99,717.5C 97.9085,711.022 100.075,706.022 105.5,702.5 Z"/></g>
<g><path style="opacity:1" fill="#f9f8fa" d="M 273.5,695.5 C 287.565,694.38 292.399,700.38 288,713.5C 282.301,718.377 276.301,718.71 270,714.5C 265.77,706.97 266.937,700.636 273.5,695.5 Z"/></g>
<g><path style="opacity:1" fill="#faf9fa" d="M 57.5,694.5 C 68.9893,693.155 73.8226,698.155 72,709.5C 66.0696,717.013 59.7362,717.346 53,710.5C 50.1528,703.89 51.6528,698.557 57.5,694.5 Z"/></g>
<g><path style="opacity:1" fill="#f9f9fa" d="M 575.5,692.5 C 591.279,692.396 596.445,699.729 591,714.5C 585.146,720.077 578.646,720.91 571.5,717C 563.856,707.267 565.189,699.1 575.5,692.5 Z"/></g>
<g><path style="opacity:1" fill="#f8f8f9" d="M 144.5,692.5 C 156.692,692.255 161.192,697.921 158,709.5C 154.723,715.109 149.89,716.942 143.5,715C 136.204,710.283 134.704,704.116 139,696.5C 140.812,695.023 142.645,693.69 144.5,692.5 Z"/></g>
<g><path style="opacity:1" fill="#f9f8f9" d="M 185.5,687.5 C 196.989,686.155 201.823,691.155 200,702.5C 197.081,708.025 192.581,709.858 186.5,708C 177.509,701.571 177.176,694.738 185.5,687.5 Z"/></g>
<g><path style="opacity:1" fill="#f9f9fa" d="M 227.5,686.5 C 239.17,686.668 243.336,692.335 240,703.5C 236.257,707.259 231.757,708.426 226.5,707C 220.891,703.723 219.058,698.89 221,692.5C 223.063,690.266 225.229,688.266 227.5,686.5 Z"/></g>
<g><path style="opacity:1" fill="#faf9fa" d="M 529.5,685.5 C 545.291,685.425 550.457,692.758 545,707.5C 535.465,715.182 527.465,713.849 521,703.5C 519.3,695.237 522.133,689.237 529.5,685.5 Z"/></g>
<g><path style="opacity:1" fill="#f9f8f9" d="M 484.5,682.5 C 493.462,680.73 499.629,684.064 503,692.5C 503.346,704.486 497.513,709.986 485.5,709C 472.637,700.649 472.303,691.816 484.5,682.5 Z"/></g>
<g><path style="opacity:1" fill="#faf9fa" d="M 440.5,682.5 C 454.155,680.99 460.322,686.99 459,700.5C 451.441,711.484 443.108,712.151 434,702.5C 430.4,693.82 432.566,687.153 440.5,682.5 Z"/></g>
<g><path style="opacity:1" fill="#f9f8fa" d="M 310.5,676.5 C 323.481,677.283 327.648,683.617 323,695.5C 316.38,701.062 310.047,700.728 304,694.5C 300.867,686.455 303.034,680.455 310.5,676.5 Z"/></g>
<g><path style="opacity:1" fill="#f9f8f9" d="M 92.5,671.5 C 105.176,671.991 109.009,677.991 104,689.5C 97.4473,693.957 91.4473,693.29 86,687.5C 83.7242,680.126 85.8909,674.793 92.5,671.5 Z"/></g>
<g><path style="opacity:1" fill="#f8f7f9" d="M 348.5,663.5 C 355.272,662.636 360.105,665.303 363,671.5C 364.004,682.827 358.838,687.661 347.5,686C 341.092,682.677 338.925,677.511 341,670.5C 342.742,667.254 345.242,664.921 348.5,663.5 Z"/></g>
<g><path style="opacity:1" fill="#faf9fa" d="M 259.5,664.5 C 273.713,664.097 277.713,670.263 271.5,683C 265.157,687.022 259.657,686.189 255,680.5C 251.975,673.742 253.475,668.409 259.5,664.5 Z"/></g>
<g><path style="opacity:1" fill="#f7f6f8" d="M 128.5,662.5 C 139.077,660.676 144.243,665.01 144,675.5C 139.265,684.345 132.931,685.679 125,679.5C 121.015,672.738 122.182,667.071 128.5,662.5 Z"/></g>
<g><path style="opacity:1" fill="#f9f8fa" d="M 561.5,660.5 C 572.865,660.028 577.699,665.362 576,676.5C 569.457,685.337 562.457,685.67 555,677.5C 553.682,674.594 553.348,671.594 554,668.5C 556.028,665.308 558.528,662.641 561.5,660.5 Z"/></g>
<g><path style="opacity:1" fill="#f6f5f7" d="M 213.5,654.5 C 225.372,654.935 229.205,660.602 225,671.5C 217.892,677.484 211.892,676.484 207,668.5C 205.669,662.163 207.836,657.497 213.5,654.5 Z"/></g>
<g><path style="opacity:1" fill="#faf9fa" d="M 171.5,655.5 C 181.902,654.066 186.735,658.4 186,668.5C 183.575,674.795 179.075,676.962 172.5,675C 166.766,671.82 164.933,666.987 167,660.5C 168.707,658.963 170.207,657.296 171.5,655.5 Z"/></g>
<g><path style="opacity:1" fill="#f8f8f9" d="M 386.5,653.5 C 397.812,652.979 402.646,658.312 401,669.5C 396.775,676.345 390.942,678.178 383.5,675C 376.159,666.553 377.159,659.386 386.5,653.5 Z"/></g>
<g><path style="opacity:1" fill="#f9f8f9" d="M 515.5,653.5 C 526.886,653.048 531.72,658.382 530,669.5C 526.23,676.414 520.73,678.247 513.5,675C 505.216,666.937 505.883,659.77 515.5,653.5 Z"/></g>
<g><path style="opacity:1" fill="#f9f8fa" d="M 470.5,650.5 C 483.129,649.624 487.963,655.291 485,667.5C 476.992,675.994 469.992,675.327 464,665.5C 462.366,658.775 464.532,653.775 470.5,650.5 Z"/></g>
<g><path style="opacity:1" fill="#faf9fa" d="M 426.5,650.5 C 431.408,649.874 435.908,650.874 440,653.5C 445.352,666.979 440.852,673.146 426.5,672C 417.221,664.836 417.221,657.67 426.5,650.5 Z"/></g>
<g><path style="opacity:1" fill="#faf9fa" d="M 294.5,646.5 C 305.989,645.155 310.823,650.155 309,661.5C 303.07,669.013 296.736,669.346 290,662.5C 288.543,659.634 288.21,656.634 289,653.5C 290.666,651.004 292.5,648.671 294.5,646.5 Z"/></g>
<g><path style="opacity:1" fill="#f9f8f9" d="M 332.5,633.5 C 343.989,632.155 348.823,637.155 347,648.5C 339.88,656.767 333.213,656.434 327,647.5C 325.349,641.36 327.182,636.694 332.5,633.5 Z"/></g>
<g><path style="opacity:1" fill="#fbfafb" d="M 591.5,632.5 C 604.183,631.674 609.017,637.341 606,649.5C 601.86,654.211 596.694,655.711 590.5,654C 582.273,646.345 582.607,639.178 591.5,632.5 Z"/></g>
<g><path style="opacity:1" fill="#f8f8f9" d="M 246.5,632.5 C 257.176,632.328 261.343,637.328 259,647.5C 258.167,649.667 256.667,651.167 254.5,652C 244.05,654.212 239.216,650.045 240,639.5C 241.694,636.642 243.861,634.309 246.5,632.5 Z"/></g>
<g><path style="opacity:1" fill="#f8f7f9" d="M 547.5,629.5 C 559.227,629.717 563.394,635.384 560,646.5C 552.774,653.682 546.441,653.016 541,644.5C 539.366,637.775 541.532,632.775 547.5,629.5 Z"/></g>
<g><path style="opacity:1" fill="#fbfafb" d="M 115.5,630.5 C 127.362,629.86 131.529,635.193 128,646.5C 121.146,652.376 115.146,651.709 110,644.5C 108.025,638.177 109.858,633.51 115.5,630.5 Z"/></g>
<g><path style="opacity:1" fill="#f7f6f8" d="M 200.5,626.5 C 209.874,626.357 213.374,630.69 211,639.5C 204.994,645.33 199.994,644.663 196,637.5C 195.333,635.5 195.333,633.5 196,631.5C 197.707,629.963 199.207,628.296 200.5,626.5 Z"/></g>
<g><path style="opacity:1" fill="#f8f7f9" d="M 159.5,627.5 C 168.161,626.329 171.994,629.996 171,638.5C 168.565,643.224 164.731,644.724 159.5,643C 152.889,637.798 152.889,632.631 159.5,627.5 Z"/></g>
<g><path style="opacity:1" fill="#faf9fa" d="M 634.5,625.5 C 642.147,624.319 647.313,627.319 650,634.5C 649.8,644.7 644.633,649.2 634.5,648C 627.93,644.345 625.763,638.845 628,631.5C 630.063,629.266 632.229,627.266 634.5,625.5 Z"/></g>
<g><path style="opacity:1" fill="#faf9fa" d="M 501.5,622.5 C 514.138,622.961 517.971,628.961 513,640.5C 509.319,643.36 505.152,644.193 500.5,643C 494.975,640.081 493.142,635.581 495,629.5C 496.694,626.642 498.861,624.309 501.5,622.5 Z"/></g>
<g><path style="opacity:1" fill="#f7f6f8" d="M 370.5,623.5 C 380.84,622.023 386.007,626.356 386,636.5C 381.265,645.345 374.931,646.679 367,640.5C 363.021,633.694 364.188,628.027 370.5,623.5 Z"/></g>
<g><path style="opacity:1" fill="#f9f8f9" d="M 456.5,619.5 C 467.486,618.653 471.986,623.653 470,634.5C 466.723,640.109 461.89,641.942 455.5,640C 447.27,632.768 447.604,625.935 456.5,619.5 Z"/></g>
<g><path style="opacity:1" fill="#faf9fa" d="M 412.5,619.5 C 422.826,618.661 427.659,623.328 427,633.5C 423.96,639.603 419.126,641.769 412.5,640C 406.891,636.723 405.058,631.89 407,625.5C 408.36,622.977 410.193,620.977 412.5,619.5 Z"/></g>
<g><path style="opacity:1" fill="#faf9fa" d="M 281.5,614.5 C 292.042,613.539 296.542,618.206 295,628.5C 291.723,634.109 286.89,635.942 280.5,634C 275.782,630.657 274.282,626.157 276,620.5C 277.36,617.977 279.193,615.977 281.5,614.5 Z"/></g>
<g><path style="opacity:1" fill="#f9f9fa" d="M 671.5,610.5 C 679.147,609.319 684.313,612.319 687,619.5C 686.8,629.7 681.633,634.2 671.5,633C 664.93,629.345 662.763,623.845 665,616.5C 667.063,614.266 669.229,612.266 671.5,610.5 Z"/></g>
<g><path style="opacity:1" fill="#f5f3f6" d="M 233.5,604.5 C 242.161,603.329 245.994,606.996 245,615.5C 239.667,623.5 234.333,623.5 229,615.5C 227.776,610.626 229.276,606.959 233.5,604.5 Z"/></g>
<g><path style="opacity:1" fill="#f9f9fa" d="M 577.5,601.5 C 588.507,600.673 593.007,605.673 591,616.5C 587.723,622.109 582.89,623.942 576.5,622C 568.289,614.671 568.622,607.838 577.5,601.5 Z"/></g>
<g><path style="opacity:1" fill="#faf9fa" d="M 318.5,601.5 C 329.49,599.992 334.324,604.658 333,615.5C 327.694,622.544 321.694,623.211 315,617.5C 312.156,611.181 313.323,605.847 318.5,601.5 Z"/></g>
<g><path style="opacity:1" fill="#f8f8f9" d="M 148.5,599.5 C 158.11,599.936 160.776,604.436 156.5,613C 147.598,616.651 143.432,613.818 144,604.5C 145.025,602.313 146.525,600.646 148.5,599.5 Z"/></g>
<g><path style="opacity:1" fill="#f9f8f9" d="M 188.5,599.5 C 196.161,598.663 199.661,601.996 199,609.5C 194.748,615.653 190.081,615.986 185,610.5C 183.663,605.872 184.83,602.205 188.5,599.5 Z"/></g>
<g><path style="opacity:1" fill="#fafafb" d="M 532.5,598.5 C 543.041,597.539 547.541,602.205 546,612.5C 544.049,616.715 540.716,618.715 536,618.5C 528.52,616.901 525.52,612.234 527,604.5C 528.36,601.977 530.193,599.977 532.5,598.5 Z"/></g>
<g><path style="opacity:1" fill="#f8f7f9" d="M 620.5,594.5 C 632.249,594.736 636.416,600.403 633,611.5C 625.774,618.682 619.441,618.016 614,609.5C 612.366,602.775 614.532,597.775 620.5,594.5 Z"/></g>
<g><path style="opacity:1" fill="#faf9fa" d="M 705.5,592.5 C 716.458,591.035 721.292,595.702 720,606.5C 716.96,612.603 712.126,614.769 705.5,613C 699.891,609.723 698.058,604.89 700,598.5C 701.36,595.977 703.193,593.977 705.5,592.5 Z"/></g>
<g><path style="opacity:1" fill="#f6f5f7" d="M 488.5,590.5 C 499.677,591.529 503.177,597.196 499,607.5C 491.892,613.484 485.892,612.484 481,604.5C 479.595,597.639 482.095,592.973 488.5,590.5 Z"/></g>
<g><path style="opacity:1" fill="#fbfafb" d="M 357.5,591.5 C 370.312,591.141 374.146,596.808 369,608.5C 356.483,614.324 350.817,610.324 352,596.5C 353.73,594.598 355.563,592.931 357.5,591.5 Z"/></g>
<g><path style="opacity:1" fill="#f7f6f8" d="M 443.5,587.5 C 454.161,587.988 457.994,593.321 455,603.5C 447.42,610.737 441.087,609.737 436,600.5C 435.412,594.339 437.912,590.005 443.5,587.5 Z"/></g>
<g><path style="opacity:1" fill="#f9f9fa" d="M 398.5,587.5 C 409.507,586.673 414.007,591.673 412,602.5C 408.657,607.218 404.157,608.718 398.5,607C 392.975,604.081 391.142,599.581 393,593.5C 394.36,590.977 396.193,588.977 398.5,587.5 Z"/></g>
<g><path style="opacity:1" fill="#f8f8f9" d="M 268.5,586.5 C 277.161,585.329 280.994,588.996 280,597.5C 277.565,602.224 273.731,603.724 268.5,602C 264.443,600.053 262.943,596.886 264,592.5C 264.979,590.032 266.479,588.032 268.5,586.5 Z"/></g>
<g><path style="opacity:1" fill="#f9f9fa" d="M 656.5,580.5 C 667.49,578.992 672.324,583.658 671,594.5C 668.24,600.297 663.74,602.463 657.5,601C 651.397,597.96 649.231,593.126 651,586.5C 652.36,583.977 654.193,581.977 656.5,580.5 Z"/></g>
<g><path style="opacity:1" fill="#f7f6f8" d="M 222.5,576.5 C 231.721,577.109 234.388,581.609 230.5,590C 220.766,593.922 216.6,590.756 218,580.5C 219.397,578.93 220.897,577.596 222.5,576.5 Z"/></g>
<g><path style="opacity:1" fill="#f5f3f6" d="M 177.5,573.5 C 184.771,573.036 187.604,576.369 186,583.5C 182,587.5 178,587.5 174,583.5C 173.333,581.5 173.333,579.5 174,577.5C 175.376,576.295 176.542,574.962 177.5,573.5 Z"/></g>
<g><path style="opacity:1" fill="#f8f7f9" d="M 136.5,574.5 C 145.306,574.464 147.639,578.297 143.5,586C 137.557,588.911 133.89,587.078 132.5,580.5C 133.432,578.235 134.765,576.235 136.5,574.5 Z"/></g>
<g><path style="opacity:1" fill="#f8f7f8" d="M 306.5,573.5 C 315.161,572.329 318.994,575.996 318,584.5C 315.565,589.224 311.731,590.724 306.5,589C 299.888,583.836 299.888,578.67 306.5,573.5 Z"/></g>
<g><path style="opacity:1" fill="#f8f8f9" d="M 519.5,570.5 C 528.055,568.82 532.221,572.153 532,580.5C 528.103,587.194 523.103,588.194 517,583.5C 514.458,578.438 515.292,574.105 519.5,570.5 Z"/></g>
<g><path style="opacity:1" fill="#f6f5f7" d="M 563.5,569.5 C 574.693,569.514 578.86,574.847 576,585.5C 568.344,592.768 562.01,591.768 557,582.5C 556.509,576.816 558.675,572.482 563.5,569.5 Z"/></g>
<g><path style="opacity:1" fill="#f9f8fa" d="M 605.5,563.5 C 616.66,561.826 621.16,566.492 619,577.5C 616.367,582.732 612.201,584.565 606.5,583C 600.703,580.24 598.537,575.74 600,569.5C 601.36,566.977 603.193,564.977 605.5,563.5 Z"/></g>
<g><path style="opacity:1" fill="#f6f5f7" d="M 475.5,562.5 C 484.365,562.847 487.532,567.181 485,575.5C 479.514,581.08 474.514,580.747 470,574.5C 469.333,572.167 469.333,569.833 470,567.5C 471.73,565.598 473.563,563.931 475.5,562.5 Z"/></g>
<g><path style="opacity:1" fill="#f9f9fa" d="M 344.5,563.5 C 353.158,562.327 356.992,565.994 356,574.5C 353.459,579.069 349.625,580.569 344.5,579C 337.951,573.744 337.951,568.578 344.5,563.5 Z"/></g>
<g><path style="opacity:1" fill="#f6f5f7" d="M 430.5,559.5 C 438.812,559.311 442.312,563.311 441,571.5C 435.171,578.476 429.838,578.143 425,570.5C 424.176,565.482 426.009,561.815 430.5,559.5 Z"/></g>
<g><path style="opacity:1" fill="#f8f7f8" d="M 386.5,559.5 C 395.705,559.206 399.205,563.54 397,572.5C 392.577,577.191 387.91,577.524 383,573.5C 380.267,567.722 381.434,563.056 386.5,559.5 Z"/></g>
<g><path style="opacity:1" fill="#f6f5f7" d="M 257.5,558.5 C 265.201,558.362 268.367,562.029 267,569.5C 262.423,576.034 257.756,576.034 253,569.5C 251.776,564.626 253.276,560.959 257.5,558.5 Z"/></g>
<g><path style="opacity:1" fill="#f2f0f3" d="M 127.5,551.5 C 134.582,552.402 136.249,555.902 132.5,562C 125.51,564.005 122.676,561.505 124,554.5C 125.145,553.364 126.312,552.364 127.5,551.5 Z"/></g>
<g><path style="opacity:1" fill="#f8f7f8" d="M 210.5,551.5 C 217.88,551.043 220.713,554.376 219,561.5C 215.685,565.105 212.018,565.439 208,562.5C 207.399,560.863 206.899,559.197 206.5,557.5C 207.432,555.235 208.765,553.235 210.5,551.5 Z"/></g>
<g><path style="opacity:1" fill="#f7f6f8" d="M 167.5,551.5 C 174.265,551.464 176.265,554.631 173.5,561C 166.136,563.728 163.303,561.228 165,553.5C 165.995,552.934 166.828,552.267 167.5,551.5 Z"/></g>
<g><path style="opacity:1" fill="#f9f8fa" d="M 642.5,548.5 C 653.324,547.156 657.824,551.823 656,562.5C 651.385,569.203 645.719,570.203 639,565.5C 634.861,558.598 636.027,552.931 642.5,548.5 Z"/></g>
<g><path style="opacity:1" fill="#f9f8f9" d="M 294.5,545.5 C 304.616,545.431 307.616,549.931 303.5,559C 294.087,562.579 289.92,559.412 291,549.5C 292.376,548.295 293.542,546.962 294.5,545.5 Z"/></g>
<g><path style="opacity:1" fill="#f8f7f9" d="M 508.5,542.5 C 514.629,541.555 518.296,544.055 519.5,550C 518.933,554.734 516.266,557.234 511.5,557.5C 508.889,557.444 506.722,556.444 505,554.5C 504.333,551.5 504.333,548.5 505,545.5C 506.145,544.364 507.312,543.364 508.5,542.5 Z"/></g>
<g><path style="opacity:1" fill="#f5f4f6" d="M 594.5,534.5 C 601.985,534.483 605.485,538.15 605,545.5C 602.983,550.924 599.15,552.758 593.5,551C 588.931,548.459 587.431,544.625 589,539.5C 590.73,537.598 592.563,535.931 594.5,534.5 Z"/></g>
<g><path style="opacity:1" fill="#f8f7f8" d="M 462.5,535.5 C 470.161,534.663 473.661,537.996 473,545.5C 469.702,550.774 465.369,551.774 460,548.5C 457.35,543.266 458.183,538.933 462.5,535.5 Z"/></g>
<g><path style="opacity:1" fill="#f7f6f8" d="M 245.5,533.5 C 252.164,533 255.331,536 255,542.5C 251.306,547.342 247.306,547.675 243,543.5C 241.861,539.579 242.695,536.246 245.5,533.5 Z"/></g>
<g><path style="opacity:1" fill="#f9f8fa" d="M 417.5,532.5 C 426.33,531.162 429.83,534.829 428,543.5C 423.959,548.313 419.625,548.646 415,544.5C 412.523,539.669 413.356,535.669 417.5,532.5 Z"/></g>
<g><path style="opacity:1" fill="#f2f0f4" d="M 158.5,531.5 C 164.488,531.664 165.821,534.164 162.5,539C 160.888,539.72 159.388,539.554 158,538.5C 157.297,536.071 157.463,533.738 158.5,531.5 Z"/></g>
<g><path style="opacity:1" fill="#f8f7f8" d="M 117.5,532.5 C 123.158,531.679 124.825,533.846 122.5,539C 116.741,540.139 115.074,537.972 117.5,532.5 Z"/></g>
<g><path style="opacity:1" fill="#f3f1f4" d="M 199.5,529.5 C 207.244,529.048 209.577,532.215 206.5,539C 199.735,541.243 196.902,538.743 198,531.5C 198.717,530.956 199.217,530.289 199.5,529.5 Z"/></g>
<g><path style="opacity:1" fill="#f3f2f5" d="M 283.5,520.5 C 290.005,519.518 293.172,522.185 293,528.5C 289.721,534.091 285.721,534.758 281,530.5C 278.701,526.362 279.535,523.028 283.5,520.5 Z"/></g>
<g><path style="opacity:1" fill="#f7f6f8" d="M 496.5,517.5 C 503.827,516.329 506.994,519.329 506,526.5C 502.049,531.818 498.049,531.818 494,526.5C 492.927,522.9 493.76,519.9 496.5,517.5 Z"/></g>
<g><path style="opacity:1" fill="#f1f0f3" d="M 236.5,510.5 C 242.771,511.374 244.604,514.707 242,520.5C 235.108,523.535 232.108,521.202 233,513.5C 234.145,512.364 235.312,511.364 236.5,510.5 Z"/></g>
<g><path style="opacity:1" fill="#f3f2f5" d="M 452.5,509.5 C 458.619,510.119 461.119,513.453 460,519.5C 456,524.833 452,524.833 448,519.5C 446.571,514.783 448.071,511.45 452.5,509.5 Z"/></g>
<g><path style="opacity:1" fill="#f0eef2" d="M 407.5,506.5 C 413.656,506.487 416.49,509.487 416,515.5C 415.535,516.931 414.701,518.097 413.5,519C 406.23,521.371 402.73,518.871 403,511.5C 404.025,509.313 405.525,507.646 407.5,506.5 Z"/></g>
<g><path style="opacity:1" fill="#f3f2f5" d="M 273.5,497.5 C 281.105,497.737 283.105,501.07 279.5,507.5C 272.55,510.046 269.717,507.713 271,500.5C 272.045,499.627 272.878,498.627 273.5,497.5 Z"/></g>
<g><path style="opacity:1" fill="#f1eff3" d="M 487.5,494.5 C 494.03,494.243 496.197,497.243 494,503.5C 490.381,506.343 487.048,506.01 484,502.5C 483.279,498.946 484.446,496.28 487.5,494.5 Z"/></g>
<g><path style="opacity:1" fill="#f5f4f6" d="M 440.5,487.5 C 448.619,487.469 450.619,490.969 446.5,498C 439.495,499.324 436.995,496.49 439,489.5C 439.717,488.956 440.217,488.289 440.5,487.5 Z"/></g>
<g><path style="opacity:1" fill="#f6f4f7" d="M 396.5,484.5 C 404.818,484.987 406.485,488.487 401.5,495C 395.667,495.833 393.167,493.333 394,487.5C 394.698,486.309 395.531,485.309 396.5,484.5 Z"/></g>
<g><path style="opacity:1" fill="#f8f7f9" d="M 264.5,478.5 C 270.158,477.679 271.825,479.846 269.5,485C 263.741,486.139 262.074,483.972 264.5,478.5 Z"/></g>
<g><path style="opacity:1" fill="#edebef" d="M 433.5,467.5 C 438.668,468.339 439.668,470.839 436.5,475C 432,475.833 430.167,474 431,469.5C 431.995,468.934 432.828,468.267 433.5,467.5 Z"/></g>
<g><path style="opacity:1" fill="#9083a1" d="M 417.5,336.5 C 419.948,335.527 422.615,335.194 425.5,335.5C 425.737,336.791 425.404,337.791 424.5,338.5C 422.721,336.656 420.388,335.99 417.5,336.5 Z"/></g>
<g><path style="opacity:1" fill="#fdfdfd" d="M 443.5,292.5 C 445.833,292.5 448.167,292.5 450.5,292.5C 450.5,313.833 450.5,335.167 450.5,356.5C 448.167,356.5 445.833,356.5 443.5,356.5C 443.5,335.167 443.5,313.833 443.5,292.5 Z"/></g>
<g><path style="opacity:1" fill="#f4f2f5" d="M 229.5,292.5 C 231.833,292.5 234.167,292.5 236.5,292.5C 236.333,308.837 236.5,325.17 237,341.5C 239.284,347.99 243.951,351.324 251,351.5C 262.591,350.912 269.591,344.912 272,333.5C 272.5,319.837 272.667,306.171 272.5,292.5C 274.833,292.5 277.167,292.5 279.5,292.5C 279.5,313.833 279.5,335.167 279.5,356.5C 277.5,356.5 275.5,356.5 273.5,356.5C 273.665,352.818 273.499,349.152 273,345.5C 263.634,358.139 251.801,360.972 237.5,354C 233.339,350.846 230.839,346.679 230,341.5C 229.5,325.17 229.333,308.837 229.5,292.5 Z"/></g>
<g><path style="opacity:1" fill="#f6f5f7" d="M 417.5,336.5 C 420.388,335.99 422.721,336.656 424.5,338.5C 419.488,354.179 408.821,360.346 392.5,357C 378.361,350.908 371.694,340.075 372.5,324.5C 371.771,309.449 378.104,298.616 391.5,292C 406.695,288.517 417.528,293.684 424,307.5C 424.494,309.134 424.66,310.801 424.5,312.5C 422.167,312.5 419.833,312.5 417.5,312.5C 416.656,305.148 412.656,300.315 405.5,298C 387.659,297.174 378.992,305.841 379.5,324C 378.768,333.479 381.768,341.479 388.5,348C 395.251,352.302 402.251,352.636 409.5,349C 413.968,346.023 416.635,341.857 417.5,336.5 Z"/></g>
<g><path style="opacity:1" fill="#f4f2f5" d="M 324.5,291.5 C 332.206,290.665 339.539,291.831 346.5,295C 349.433,297.264 351.6,300.098 353,303.5C 354.459,321.098 354.959,338.764 354.5,356.5C 352.167,356.5 349.833,356.5 347.5,356.5C 347.667,339.83 347.5,323.163 347,306.5C 343.917,300.453 338.917,297.453 332,297.5C 322.972,297.857 316.638,302.191 313,310.5C 311.548,325.762 311.048,341.095 311.5,356.5C 309.167,356.5 306.833,356.5 304.5,356.5C 304.5,335.167 304.5,313.833 304.5,292.5C 306.5,292.5 308.5,292.5 310.5,292.5C 310.335,296.182 310.501,299.848 311,303.5C 314.428,298.235 318.928,294.235 324.5,291.5 Z"/></g>
<g><path style="opacity:1" fill="#f6f5f7" d="M 175.5,291.5 C 192.44,289.046 203.94,295.713 210,311.5C 212.445,322.047 211.778,332.38 208,342.5C 198.711,358.016 185.878,361.849 169.5,354C 162.991,349.478 158.825,343.312 157,335.5C 156.09,326.756 156.424,318.089 158,309.5C 161.353,300.982 167.186,294.982 175.5,291.5 Z"/></g>
<g><path style="opacity:1" fill="#381f55" d="M 178.5,297.5 C 192.563,296.442 201.063,302.775 204,316.5C 206.383,327.99 203.883,338.157 196.5,347C 185.317,354.166 175.484,352.666 167,342.5C 161.859,331.803 161.193,320.803 165,309.5C 168.266,303.975 172.766,299.975 178.5,297.5 Z"/></g>
<g><path style="opacity:1" fill="#fefefe" d="M 442.5,266.5 C 445.5,266.5 448.5,266.5 451.5,266.5C 451.5,269.5 451.5,272.5 451.5,275.5C 448.5,275.5 445.5,275.5 442.5,275.5C 442.5,272.5 442.5,269.5 442.5,266.5 Z"/></g>
<g><path style="opacity:1" fill="#f1eff3" d="M 475.5,264.5 C 477.833,264.5 480.167,264.5 482.5,264.5C 482.333,292.169 482.5,319.835 483,347.5C 483.374,348.416 483.874,349.25 484.5,350C 487.817,350.498 491.15,350.665 494.5,350.5C 494.5,352.5 494.5,354.5 494.5,356.5C 488.895,357.092 483.561,356.259 478.5,354C 477.54,352.581 476.707,351.081 476,349.5C 475.5,321.169 475.333,292.835 475.5,264.5 Z"/></g>
<g><path style="opacity:1" fill="#f6f5f7" d="M 105.5,264.5 C 122.314,262.985 134.48,269.652 142,284.5C 143.199,287.726 143.699,291.059 143.5,294.5C 141.167,294.5 138.833,294.5 136.5,294.5C 133.48,276.468 122.813,268.968 104.5,272C 94.8366,275.664 88.6699,282.497 86,292.5C 83.573,307.016 84.2397,321.349 88,335.5C 94.8981,348.945 105.731,353.778 120.5,350C 130.283,346.062 135.617,338.895 136.5,328.5C 138.833,328.5 141.167,328.5 143.5,328.5C 139.649,350.95 126.315,360.45 103.5,357C 88.009,351.824 79.509,340.99 78,324.5C 77.1743,313.128 77.5077,301.794 79,290.5C 83.1217,276.877 91.955,268.21 105.5,264.5 Z"/></g>
<g><path style="opacity:1" fill="#fdfdfd" d="M 445.5,78.5 C 481.873,83.7356 497.706,104.736 493,141.5C 487.326,165.453 472.16,178.953 447.5,182C 432.504,182.5 417.504,182.667 402.5,182.5C 402.5,201.833 402.5,221.167 402.5,240.5C 392.833,240.5 383.167,240.5 373.5,240.5C 373.5,186.5 373.5,132.5 373.5,78.5C 397.5,78.5 421.5,78.5 445.5,78.5 Z"/></g>
<g><path style="opacity:1" fill="#371e55" d="M 402.5,104.5 C 416.837,104.333 431.171,104.5 445.5,105C 457.869,108.736 463.869,117.069 463.5,130C 463.546,144.293 456.546,152.959 442.5,156C 429.171,156.5 415.837,156.667 402.5,156.5C 402.5,139.167 402.5,121.833 402.5,104.5 Z"/></g>
<g><path style="opacity:1" fill="#9b8ea8" d="M 445.5,78.5 C 421.5,78.5 397.5,78.5 373.5,78.5C 373.5,132.5 373.5,186.5 373.5,240.5C 372.501,186.336 372.168,132.003 372.5,77.5C 397.006,77.169 421.339,77.5024 445.5,78.5 Z"/></g>
<g><path style="opacity:1" fill="#fcfbfc" d="M 77.5,77.5 C 102.169,77.3334 126.836,77.5 151.5,78C 175.43,79.1753 190.93,91.0086 198,113.5C 200.84,131.839 194.674,146.173 179.5,156.5C 194.103,164.195 201.437,176.362 201.5,193C 200.088,222.08 184.755,237.747 155.5,240C 129.502,240.5 103.502,240.667 77.5,240.5C 77.5,186.167 77.5,131.833 77.5,77.5 Z"/></g>
<g><path style="opacity:1" fill="#361d54" d="M 107.5,169.5 C 122.504,169.333 137.504,169.5 152.5,170C 171.155,175.268 176.322,186.768 168,204.5C 163.168,209.332 157.335,212.165 150.5,213C 136.171,213.5 121.837,213.667 107.5,213.5C 107.5,198.833 107.5,184.167 107.5,169.5 Z"/></g>
<g><path style="opacity:1" fill="#361d54" d="M 107.5,103.5 C 121.171,103.333 134.837,103.5 148.5,104C 163.323,106.154 169.823,114.654 168,129.5C 165.843,136.836 161.01,141.336 153.5,143C 138.17,143.5 122.837,143.667 107.5,143.5C 107.5,130.167 107.5,116.833 107.5,103.5 Z"/></g>
<g><path style="opacity:1" fill="#fcfcfc" d="M 271.5,75.5 C 290.18,72.6794 307.513,76.1794 323.5,86C 338.405,96.6387 346.405,111.139 347.5,129.5C 337.5,129.5 327.5,129.5 317.5,129.5C 316.323,120.161 311.99,112.661 304.5,107C 282.311,96.7301 265.478,102.23 254,123.5C 247.691,147.945 248.025,172.278 255,196.5C 262.855,211.845 275.355,218.345 292.5,216C 307.481,212.856 315.481,203.69 316.5,188.5C 326.833,188.5 337.167,188.5 347.5,188.5C 343.875,217.959 327.542,235.792 298.5,242C 251.345,246.187 225.178,224.687 220,177.5C 219.333,164.167 219.333,150.833 220,137.5C 223.667,105.355 240.833,84.6883 271.5,75.5 Z"/></g>
</svg>
